<svg fill="#000000" xmlns="http://www.w3.org/2000/svg" xmlns:xlink="http://www.w3.org/1999/xlink" version="1.1" x="0px" y="0px" viewBox="0 0 100 100" enable-background="new 0 0 100 100" xml:space="preserve"><g><path d="M11.861,24.332c0.971,0.124,1.829-0.617,1.695-1.633c-0.137-1.029-1.328-1.22-1.929-0.485   c-0.229,0.28,0.169,0.684,0.4,0.401c0.617-0.753,1.162,0.1,0.842,0.759c-0.23,0.476-0.8,0.456-1.225,0.324   c-0.894-0.279-1.541-1.51-0.886-2.28c0.53-0.623,1.51-0.823,2.286-0.809c0.987,0.019,1.718,0.509,2.28,1.291   c0.992,1.377,1.42,2.994,2.78,4.108c0.212,0.174,0.437,0.314,0.667,0.44l-1.982-0.019c0,0-1.466,0.067-2.465,0.824   c0.004,0.001,0.008,0.003,0.013,0.004C12.945,28.159,12.017,29.72,12,31.5c-0.022,2.321,1.85,4.23,4.171,4.251   c1.924,0.02,3.505-1.531,3.522-3.456c0.016-1.604-1.277-2.922-2.882-2.938c-1.35-0.013-2.458,1.074-2.471,2.424   c-0.011,1.146,0.912,2.085,2.058,2.096c0.328,0.004,0.596-0.26,0.599-0.589c0.004-0.328-0.26-0.596-0.588-0.6   c-0.489-0.004-0.884-0.406-0.879-0.896c0.007-0.694,0.576-1.253,1.27-1.246c0.949,0.009,1.713,0.788,1.704,1.737   c-0.012,1.269-1.053,2.291-2.321,2.277c-1.667-0.016-3.011-1.384-2.994-3.051c0.021-2.166,1.799-3.911,3.965-3.89l4.48,0.042   c3.961,1.811,15.427,6.393,29.988,6.393c8.647,0,18.388-1.625,28.288-6.4l3.637-0.035c2.166-0.021,3.944,1.724,3.965,3.89   c0.017,1.667-1.327,3.036-2.994,3.051c-1.269,0.014-2.31-1.008-2.321-2.277c-0.009-0.949,0.755-1.729,1.704-1.737   c0.693-0.007,1.263,0.552,1.27,1.246c0.005,0.489-0.39,0.892-0.879,0.896c-0.328,0.004-0.592,0.271-0.588,0.6   c0.003,0.329,0.271,0.593,0.599,0.589c1.146-0.011,2.068-0.95,2.058-2.096c-0.013-1.35-1.121-2.437-2.471-2.424   c-1.604,0.016-2.897,1.333-2.882,2.938c0.018,1.924,1.599,3.475,3.522,3.456c2.321-0.021,4.193-1.93,4.171-4.251   c-0.017-1.78-0.945-3.341-2.337-4.244c0.005-0.001,0.009-0.003,0.013-0.004c-0.999-0.757-2.465-0.824-2.465-0.824l-1.697,0.016   c0.236-0.125,0.468-0.267,0.686-0.443c1.369-1.104,1.808-2.718,2.81-4.088c0.567-0.778,1.302-1.262,2.289-1.274   c0.774-0.008,1.755,0.198,2.28,0.825c0.648,0.775-0.006,2.001-0.902,2.274c-0.426,0.129-0.994,0.145-1.222-0.333   c-0.315-0.662,0.235-1.51,0.847-0.753c0.229,0.284,0.629-0.116,0.403-0.399c-0.597-0.738-1.788-0.557-1.934,0.472   c-0.142,1.016,0.714,1.763,1.684,1.646c0.933-0.111,1.833-1.016,1.961-1.944c0.134-0.97-0.598-1.693-1.442-2.036   c-0.229-0.092-0.474-0.165-0.723-0.219c-0.269-0.048-1-0.133-2.31-0.011c-1.642,0.292-3.184,0.968-4.213,2.376   c-1.17,1.603-1.77,3.974-4.166,3.849c-0.063-0.004-0.115,0.016-0.156,0.043c-0.054-0.005-0.104-0.009-0.157-0.014   c-0.093-0.009-0.16,0.021-0.205,0.072H77.73c1.116-0.95,1.82-2.368,1.806-3.945c-0.022-2.323-1.93-4.195-4.253-4.172   c-1.924,0.018-3.473,1.598-3.455,3.522c0.016,1.604,1.332,2.897,2.938,2.882c1.349-0.013,2.437-1.122,2.423-2.47   c-0.011-1.146-0.951-2.068-2.096-2.058c-0.328,0.003-0.592,0.272-0.589,0.601c0.003,0.329,0.272,0.592,0.601,0.589   c0.489-0.004,0.892,0.39,0.896,0.879c0.006,0.693-0.553,1.263-1.246,1.27c-0.949,0.009-1.729-0.756-1.738-1.704   c-0.012-1.269,1.011-2.31,2.278-2.322c1.668-0.016,3.037,1.327,3.053,2.995c0.021,2.166-1.726,3.944-3.892,3.965l-7.095,0.067   l-3.907,0.004c1.444-1.007,2.231-2.507,2.517-4.239c0.063-0.375-0.205-0.633-0.578-0.577c-1.559,0.236-3.139,0.747-4.385,1.751   c-1.053,0.848-1.549,2.248-2.715,2.952c-0.061,0.025-0.101,0.071-0.139,0.118l-2.589,0.002c0.972-0.401,1.859-0.947,2.634-1.895   c1.383-1.691,1.602-3.913,1.254-5.998c-0.055-0.317-0.445-0.405-0.691-0.28c-1.609,0.821-3.113,1.917-4.178,3.402   c-1.036,1.446-1.066,3.417-2.182,4.774l-1.208,0.001c0.341-0.974,0.5-1.991,0.295-3.076c-0.359-1.895-1.758-3.217-2.715-4.809   c-1.059-1.763-0.418-4.163,1.553-4.993c1.135-0.477,1.953,0.719,2.039,1.726c0.045,0.523-0.189,1.087-0.688,1.3   c-0.892,0.38-1.818-0.908-0.613-1.187c0.404-0.094,0.193-0.702-0.207-0.608c-1.091,0.253-1.35,1.405-0.545,2.157   c0.834,0.78,2.121,0.197,2.529-0.699c0.451-0.993-0.016-2.243-0.775-2.959l0.006,0c-0.008-0.008-0.018-0.011-0.025-0.019   c-0.033-0.03-0.063-0.065-0.096-0.094c-0.051-0.043-0.107-0.068-0.16-0.103c-1.04-0.716-2.277,0.07-2.277,0.07h0.004   c-1.33,0.692-1.894,2.574-1.894,2.574l0.011-0.013c-0.749,2.072-1.016,4.319,0.065,6.348c0.78,1.464,2.132,2.819,2.265,4.387   l-2.363,0.002c-1.12-1.356-1.149-3.331-2.188-4.779c-1.064-1.483-2.567-2.58-4.178-3.401c-0.246-0.125-0.637-0.035-0.69,0.28   c-0.361,2.167-0.1,4.506,1.423,6.205c0.747,0.833,1.575,1.33,2.47,1.698l-2.576,0.002c-0.041-0.055-0.088-0.104-0.158-0.133   c-1.208-0.729-1.664-2.208-2.81-3.025c-1.293-0.923-2.724-1.441-4.291-1.678c-0.372-0.057-0.639,0.201-0.578,0.577   c0.275,1.668,1.062,3.346,2.544,4.265h-0.103l-10.338-0.109c-2.113-0.081-3.801-1.825-3.781-3.953   c0.016-1.667,1.385-3.01,3.053-2.995c1.268,0.012,2.29,1.053,2.278,2.322c-0.009,0.948-0.789,1.713-1.738,1.704   c-0.693-0.006-1.252-0.576-1.246-1.27c0.005-0.489,0.407-0.884,0.896-0.879c0.328,0.003,0.598-0.26,0.601-0.589   c0.003-0.328-0.261-0.597-0.589-0.601c-1.145-0.011-2.085,0.912-2.096,2.058c-0.014,1.349,1.074,2.458,2.423,2.47   c1.605,0.015,2.922-1.278,2.938-2.882c0.018-1.924-1.531-3.504-3.455-3.522c-2.323-0.022-4.23,1.85-4.253,4.172   c-0.015,1.565,0.68,2.972,1.781,3.922c-0.016,0.001-0.032,0.002-0.049,0.004c-0.042-0.028-0.091-0.048-0.156-0.045   c-2.397,0.108-2.981-2.267-4.139-3.878c-1.018-1.416-2.556-2.103-4.196-2.406c-1.309-0.131-2.041-0.052-2.309-0.006   c-0.251,0.054-0.497,0.124-0.725,0.215c-0.846,0.336-1.583,1.055-1.457,2.026C10.036,23.303,10.93,24.213,11.861,24.332z    M36.042,27.8h25.083l6.047-0.024l10.287-0.098c-23.074,10.157-44.874,3.414-53.237,0.009L36.042,27.8z"/><path d="M89.153,74.317c-0.97-0.117-1.825,0.63-1.684,1.646c0.146,1.029,1.337,1.21,1.934,0.472   c0.226-0.282-0.175-0.683-0.403-0.399c-0.611,0.758-1.162-0.091-0.847-0.752c0.228-0.479,0.796-0.463,1.222-0.334   c0.896,0.273,1.551,1.499,0.902,2.274c-0.525,0.627-1.506,0.833-2.28,0.825c-0.987-0.012-1.722-0.496-2.289-1.274   c-1.002-1.37-1.44-2.983-2.81-4.089c-0.217-0.176-0.447-0.316-0.684-0.441l1.695,0.016c0,0,1.466-0.067,2.465-0.824   c-0.004-0.002-0.008-0.003-0.013-0.004c1.392-0.903,2.32-2.465,2.337-4.244c0.022-2.322-1.85-4.23-4.171-4.252   c-1.924-0.02-3.505,1.531-3.522,3.455c-0.016,1.605,1.277,2.922,2.882,2.938c1.35,0.014,2.458-1.074,2.471-2.424   c0.011-1.145-0.912-2.084-2.058-2.096c-0.328-0.004-0.596,0.26-0.599,0.59c-0.004,0.328,0.26,0.596,0.588,0.6   c0.489,0.004,0.884,0.406,0.879,0.895c-0.007,0.695-0.576,1.254-1.27,1.246c-0.949-0.008-1.713-0.787-1.704-1.736   c0.012-1.27,1.053-2.291,2.321-2.277c1.667,0.016,3.011,1.385,2.994,3.051c-0.021,2.166-1.799,3.911-3.965,3.891l-2.435-0.023   c-29.501-14.977-57.862-1.452-60.72-0.008l-3.238,0.031c-2.166,0.021-3.944-1.725-3.965-3.891   c-0.017-1.666,1.327-3.035,2.994-3.051c1.269-0.014,2.31,1.008,2.321,2.277c0.009,0.949-0.755,1.729-1.704,1.736   c-0.693,0.008-1.263-0.551-1.27-1.246c-0.005-0.488,0.39-0.891,0.879-0.895c0.328-0.004,0.592-0.271,0.588-0.6   c-0.003-0.33-0.271-0.594-0.599-0.59c-1.146,0.012-2.068,0.951-2.058,2.096c0.013,1.35,1.121,2.438,2.471,2.424   c1.604-0.016,2.897-1.332,2.882-2.938c-0.018-1.924-1.599-3.475-3.522-3.455c-2.321,0.021-4.193,1.93-4.171,4.252   c0.017,1.779,0.945,3.341,2.337,4.244c-0.005,0.001-0.009,0.002-0.013,0.004c0.999,0.757,2.465,0.824,2.465,0.824l1.981-0.019   c-0.23,0.125-0.454,0.266-0.666,0.439c-1.36,1.114-1.788,2.73-2.78,4.108c-0.563,0.781-1.293,1.271-2.28,1.29   c-0.775,0.015-1.755-0.187-2.286-0.81c-0.655-0.77-0.008-2.001,0.886-2.279c0.425-0.133,0.995-0.152,1.225,0.324   c0.32,0.658-0.225,1.512-0.842,0.758c-0.231-0.282-0.63,0.121-0.4,0.402c0.601,0.734,1.792,0.544,1.929-0.485   c0.134-1.017-0.724-1.757-1.695-1.634c-0.931,0.119-1.826,1.029-1.947,1.958c-0.126,0.971,0.611,1.689,1.457,2.026   c0.228,0.09,0.474,0.16,0.725,0.215c0.268,0.045,1,0.125,2.309-0.006c1.64-0.303,3.178-0.99,4.196-2.406   c1.158-1.611,1.742-3.986,4.139-3.878c0.065,0.003,0.114-0.017,0.156-0.045c0.017,0.002,0.033,0.003,0.049,0.004   c-1.102,0.949-1.796,2.356-1.782,3.923c0.022,2.322,1.93,4.194,4.253,4.172c1.924-0.018,3.473-1.598,3.455-3.521   c-0.016-1.605-1.332-2.898-2.938-2.883c-1.349,0.013-2.437,1.121-2.423,2.471c0.011,1.145,0.951,2.068,2.096,2.057   c0.328-0.003,0.592-0.271,0.589-0.6c-0.003-0.33-0.272-0.593-0.601-0.59c-0.489,0.005-0.892-0.39-0.896-0.879   c-0.006-0.693,0.553-1.264,1.246-1.27c0.949-0.01,1.729,0.756,1.738,1.704c0.012,1.269-1.011,2.31-2.278,2.321   c-1.668,0.016-3.037-1.326-3.053-2.994c-0.02-2.128,1.667-3.872,3.781-3.953l10.338-0.109h0.104   c-1.483,0.919-2.269,2.598-2.544,4.266c-0.061,0.376,0.206,0.633,0.578,0.576c1.566-0.236,2.997-0.754,4.291-1.678   c1.146-0.816,1.602-2.295,2.81-3.025c0.07-0.028,0.118-0.078,0.159-0.134l2.577,0.003c-0.896,0.369-1.725,0.865-2.472,1.699   c-1.522,1.697-1.784,4.037-1.423,6.204c0.053,0.315,0.444,0.405,0.69,0.28c1.611-0.821,3.114-1.918,4.178-3.401   c1.038-1.447,1.067-3.423,2.188-4.779l2.363,0.003c-0.133,1.566-1.484,2.923-2.265,4.387c-1.081,2.028-0.814,4.275-0.065,6.348   l-0.011-0.013c0,0,0.564,1.882,1.894,2.574h-0.004c0,0,1.237,0.786,2.277,0.069c0.053-0.034,0.109-0.06,0.16-0.103   c0.033-0.028,0.063-0.063,0.096-0.094c0.008-0.008,0.018-0.011,0.025-0.019h-0.006c0.76-0.717,1.227-1.967,0.775-2.959   c-0.408-0.896-1.695-1.48-2.529-0.699c-0.805,0.752-0.546,1.903,0.545,2.156c0.4,0.094,0.611-0.514,0.207-0.608   c-1.205-0.279-0.278-1.567,0.613-1.187c0.498,0.213,0.732,0.777,0.688,1.3c-0.086,1.007-0.904,2.202-2.039,1.726   c-1.971-0.83-2.611-3.229-1.553-4.992c0.957-1.592,2.355-2.915,2.715-4.81c0.205-1.086,0.046-2.103-0.295-3.076l1.208,0.001   c1.115,1.356,1.146,3.329,2.182,4.773c1.064,1.484,2.568,2.581,4.178,3.402c0.246,0.125,0.637,0.037,0.691-0.28   c0.348-2.085,0.129-4.307-1.254-5.997c-0.775-0.948-1.663-1.494-2.636-1.896l2.591,0.003c0.038,0.047,0.078,0.093,0.139,0.117   c1.166,0.705,1.662,2.104,2.715,2.952c1.246,1.005,2.826,1.516,4.385,1.751c0.373,0.057,0.641-0.201,0.578-0.576   c-0.285-1.732-1.072-3.232-2.517-4.239l3.907,0.004l7.095,0.067c2.166,0.021,3.912,1.799,3.892,3.965   c-0.016,1.668-1.385,3.01-3.053,2.994c-1.268-0.012-2.29-1.053-2.278-2.321c0.009-0.948,0.789-1.714,1.738-1.704   c0.693,0.006,1.252,0.576,1.246,1.27c-0.005,0.489-0.407,0.884-0.896,0.879c-0.328-0.003-0.598,0.26-0.601,0.59   c-0.003,0.328,0.261,0.597,0.589,0.6c1.145,0.012,2.085-0.912,2.096-2.057c0.014-1.35-1.074-2.458-2.423-2.471   c-1.605-0.016-2.922,1.277-2.938,2.883c-0.018,1.924,1.531,3.504,3.455,3.521c2.323,0.022,4.23-1.85,4.253-4.172   c0.015-1.578-0.689-2.996-1.806-3.945h0.012c0.045,0.051,0.112,0.081,0.205,0.072c0.053-0.006,0.104-0.01,0.157-0.014   c0.041,0.027,0.093,0.047,0.156,0.043c2.396-0.125,2.996,2.246,4.166,3.85c1.029,1.407,2.571,2.084,4.213,2.375   c1.31,0.122,2.041,0.037,2.31-0.011c0.249-0.054,0.494-0.127,0.723-0.22c0.845-0.342,1.576-1.066,1.442-2.035   C90.986,75.333,90.086,74.429,89.153,74.317z M67.172,70.911l-6.047-0.024H36.042l-13.24,0.126   c7.174-3.144,30.956-11.676,55.96,0.009L67.172,70.911z"/></g></svg>